<?xml version="1.0" encoding="UTF-8" standalone="no"?>
<!DOCTYPE svg PUBLIC "-//W3C//DTD SVG 1.1//EN" "http://www.w3.org/Graphics/SVG/1.1/DTD/svg11.dtd">
<svg width="100%" height="100%" viewBox="0 0 800 800" version="1.1" xmlns="http://www.w3.org/2000/svg" xmlns:xlink="http://www.w3.org/1999/xlink" xml:space="preserve" xmlns:serif="http://www.serif.com/" style="fill-rule:evenodd;clip-rule:evenodd;stroke-linecap:round;stroke-linejoin:round;stroke-miterlimit:1.5;">
    <g id="services" transform="matrix(0.666302,0,0,0.666302,-471.044,-120.311)">
        <path d="M1611.16,313.472L1603.82,451.773" style="fill:none;stroke:white;stroke-width:4.5px;"/>
        <path d="M1577.52,459.478L1575.56,499.691" style="fill:none;stroke:white;stroke-width:4.5px;"/>
        <path d="M1574.69,528.988L1572.22,583.229" style="fill:none;stroke:white;stroke-width:4.5px;"/>
        <path d="M1647.34,473.189L1637.62,623.305" style="fill:none;stroke:white;stroke-width:4.5px;"/>
        <path d="M1671.22,494.812L1661.67,633.185" style="fill:none;stroke:white;stroke-width:4.5px;"/>
        <path d="M1627.66,511.855L1621.47,618.496" style="fill:none;stroke:white;stroke-width:4.5px;"/>
        <g transform="matrix(1,0,0,1,44.9775,-32.295)">
            <path d="M1651.36,490.967L1649.47,519.485" style="fill:none;stroke:white;stroke-width:4.5px;"/>
        </g>
        <g transform="matrix(1,0,0,1,-55.1605,-16.3135)">
            <path d="M1218.38,489.72L1218.24,500.495" style="fill:none;stroke:white;stroke-width:4.5px;"/>
        </g>
        <g transform="matrix(-358.653,0,0,12.3566,438246,-5898.39)">
            <path d="M1218.47,504.038L1218.47,504.318" style="fill:none;stroke:white;stroke-width:0.02px;"/>
        </g>
        <path d="M1163.22,472.846L1232.04,455.936L1252.35,460.848L1253.35,483.282L1230,489.27L1163.22,472.846Z" style="fill:none;stroke:white;stroke-width:4.5px;"/>
        <path d="M1211.84,315.161L1238.37,310.959L1255.64,313.381L1255.53,326.022L1237.07,329.689L1211.91,325.619L1211.84,315.161Z" style="fill:none;stroke:white;stroke-width:4.5px;"/>
        <path d="M1369.88,328.025L1382.1,324.617L1439.28,334.291L1388.03,344.419L1369.81,341.427L1369.88,328.025Z" style="fill:none;stroke:white;stroke-width:4.5px;"/>
        <path d="M1396.99,406.784L1450.72,394.802L1397.58,384.228L1396.99,406.784Z" style="fill:none;stroke:white;stroke-width:4.5px;"/>
        <path d="M1407.59,378.8L1459.59,367.418L1491.49,372.682L1491.18,384.228L1469.11,390.093L1407.59,378.8Z" style="fill:none;stroke:white;stroke-width:4.5px;"/>
        <g transform="matrix(1,0,0,1,-56.8853,-18.603)">
            <path d="M1464.47,397.359L1464.57,404.559" style="fill:none;stroke:white;stroke-width:4.5px;"/>
        </g>
        <path d="M1429.4,456.573L1416.92,460.011L1429.51,462.84L1429.4,456.573Z" style="fill:none;stroke:white;stroke-width:4.5px;"/>
        <path d="M1416.92,460.438L1416.92,484.916" style="fill:none;stroke:white;stroke-width:4.5px;"/>
        <path d="M1395.68,511.003L1407.59,507.346L1418.85,509.107L1428.64,505.379L1428.64,488.392L1396.1,480.539L1395.68,511.003Z" style="fill:none;stroke:white;stroke-width:4.5px;"/>
        <path d="M1478.97,524.392L1478.75,533.153" style="fill:none;stroke:white;stroke-width:4.5px;"/>
        <path d="M1499.8,566.505L1504.01,566.116L1580.18,585.39L1518.34,607.41L1498.62,602.211L1499.8,566.505Z" style="fill:none;stroke:white;stroke-width:4.5px;"/>
        <g transform="matrix(0.966253,0,0,1.14279,376.08,-279.752)">
            <path d="M1295.29,692.696L1223.19,678.592L1221.55,703.519L1240.47,707.284L1295.29,692.696Z" style="fill:none;stroke:white;stroke-width:4.25px;stroke-linecap:square;"/>
        </g>
        <path d="M1578.86,608.012L1651.61,627.298L1595.99,649.855L1577.52,644.427L1578.86,608.012Z" style="fill:none;stroke:white;stroke-width:4.5px;"/>
        <path d="M1063.66,527.583L1057.83,527.02L984.264,545.023L1044.7,564.196L1065.37,558.82L1063.66,527.583Z" style="fill:none;stroke:white;stroke-width:4.5px;"/>
        <path d="M1651.61,630.8L1717.51,648.752L1666.19,670.351L1649.68,665.112L1651.61,630.8Z" style="fill:none;stroke:white;stroke-width:4.5px;"/>
        <path d="M1559.91,324.14L1555.66,429.328" style="fill:none;stroke:white;stroke-width:4.5px;"/>
        <path d="M1493.34,312.686L1490.18,416.785" style="fill:none;stroke:white;stroke-width:4.5px;"/>
        <path d="M1469.18,390.496L1468.2,422.162" style="fill:none;stroke:white;stroke-width:4.5px;"/>
        <path d="M1450.82,394.802L1450.63,426.133" style="fill:none;stroke:white;stroke-width:4.5px;"/>
        <path d="M1560.89,431.7L1554.22,578.312" style="fill:none;stroke:white;stroke-width:4.5px;"/>
        <path d="M1502.38,446.616L1499.19,538.656" style="fill:none;stroke:white;stroke-width:4.5px;"/>
        <path d="M1429.99,431.559L1428.64,512.445" style="fill:none;stroke:white;stroke-width:4.5px;"/>
        <path d="M1397.49,378.011L1395.48,526.574" style="fill:none;stroke:white;stroke-width:4.5px;"/>
        <path d="M1439.35,334.598L1438.54,371.429" style="fill:none;stroke:white;stroke-width:4.5px;"/>
        <path d="M1387.89,344.493L1387.88,376.102" style="fill:none;stroke:white;stroke-width:4.5px;"/>
        <path d="M1369.67,269.907L1369.67,372.996" style="fill:none;stroke:white;stroke-width:4.5px;"/>
        <path d="M1313.79,278.701L1314.08,366.095" style="fill:none;stroke:white;stroke-width:4.5px;"/>
        <path d="M1211.66,294.929L1211.66,336.031" style="fill:none;stroke:white;stroke-width:4.5px;"/>
        <path d="M1255.68,270.405L1255.77,336.845" style="fill:none;stroke:white;stroke-width:4.5px;"/>
        <path d="M1295.75,344.493L1296.09,369.488" style="fill:none;stroke:white;stroke-width:4.5px;"/>
        <g transform="matrix(1.15532,0,0,1.15532,-195.507,-100.094)">
            <path d="M1386.3,664.08L1317.92,643.797L1254.46,664.226L1284.18,675.246L1322.08,687.989L1386.3,664.08Z" style="fill:none;stroke:white;stroke-width:3.9px;stroke-linecap:square;"/>
        </g>
        <g transform="matrix(1.15532,0,0,1.15532,-186.536,-18.4002)">
            <path d="M1314.31,617.74L1314.76,747.25L1326.18,742.354L1376.32,720.859C1375.99,679.721 1377.05,636.723 1378.53,594.566" style="fill:none;stroke:white;stroke-width:3.9px;stroke-linecap:square;"/>
        </g>
        <g transform="matrix(1.15532,0,0,1.15532,-235.424,1.98918)">
            <path d="M1356.63,599.63L1289.01,575.867L1290.99,703.6L1356.63,729.602L1356.63,599.63Z" style="fill:none;stroke:white;stroke-width:3.9px;stroke-linecap:square;"/>
        </g>
        <g transform="matrix(0.966253,0,0,1.14279,-368.614,-166.484)">
            <path d="M1308.59,656.245L1255.3,639.528L1263.89,719.86L1317.52,737.035L1308.59,656.245Z" style="fill:none;stroke:white;stroke-width:4.25px;stroke-linecap:square;"/>
        </g>
        <g transform="matrix(0.966253,0,0,1.14279,-368.614,-271.059)">
            <path d="M1323.31,717.478L1302.56,721.615L1255.3,731.036L1308.43,747.754L1325.2,743.802" style="fill:none;stroke:white;stroke-width:4.25px;stroke-linecap:square;"/>
        </g>
        <g transform="matrix(0.966253,0,0,1.14279,-317.602,-147.379)">
            <path d="M1272.4,636.334L1255.3,639.528L1264.73,720.318L1281.84,716.508" style="fill:none;stroke:white;stroke-width:4.25px;stroke-linecap:square;"/>
        </g>
        <g transform="matrix(0.966253,0,0,1.14279,-368.614,-166.484)">
            <path d="M1308.59,656.245L1255.3,639.528L1263.89,719.86L1317.52,737.035L1308.59,656.245Z" style="fill:none;stroke:white;stroke-width:4.25px;stroke-linecap:square;"/>
        </g>
        <g transform="matrix(0.977988,0,0,0.492145,-302.896,313.065)">
            <path d="M1286.69,240.795L1230.01,211.76L1253.08,752.278L1307.37,796.18L1286.69,240.795Z" style="fill:none;stroke:white;stroke-width:5.82px;stroke-linecap:square;"/>
        </g>
        <g transform="matrix(0.966253,0,0,1.14279,-237.241,-379.059)">
            <path d="M1313.34,695.701L1255.3,683.652L1177,696.838L1234.55,709.562L1313.34,695.701Z" style="fill:none;stroke:white;stroke-width:4.25px;stroke-linecap:square;"/>
        </g>
        <g transform="matrix(0.966253,0,0,1.14279,-212.012,-227.414)">
            <path d="M1238.06,676.468L1250.22,822.901L1310.16,842.482L1300.59,692.845" style="fill:none;stroke:white;stroke-width:4.25px;"/>
        </g>
        <g transform="matrix(0.966253,0,0,1.14279,-132.797,-276.281)">
            <path d="M1305.03,692.301L1236.64,676.11L1250.31,892.276L1316.55,914.5L1305.03,692.301Z" style="fill:none;stroke:white;stroke-width:4.25px;stroke-linecap:square;"/>
        </g>
        <g transform="matrix(0.966253,0,0,1.14279,-41.2777,-192.46)">
            <path d="M1312.29,694.792L1238.06,675.674L1245.45,849.42L1316.79,873.278L1312.29,694.792Z" style="fill:none;stroke:white;stroke-width:4.25px;stroke-linecap:square;"/>
        </g>
        <g transform="matrix(0.966253,0,0,1.14279,-73.8039,-299.295)">
            <path d="M1323.07,695.492L1253.88,680.49L1175.59,696.249L1244.76,712.44L1323.07,695.492Z" style="fill:none;stroke:white;stroke-width:4.25px;stroke-linecap:square;"/>
        </g>
        <g transform="matrix(0.966253,0,0,1.14279,27.9245,-216.382)">
            <path d="M1318.62,695.297L1244.9,677.622L1166.75,696.587L1240.79,715.844L1318.62,695.297Z" style="fill:none;stroke:white;stroke-width:4.25px;stroke-linecap:square;"/>
        </g>
        <g transform="matrix(0.966253,0,0,1.14279,-48.1503,-498.376)">
            <path d="M1303.81,694.21L1242.37,685.503L1175.41,694.988L1235.94,703.505L1303.81,694.21Z" style="fill:none;stroke:white;stroke-width:4.25px;stroke-linecap:square;"/>
        </g>
        <g transform="matrix(0.966253,0,0,1.14279,111.843,-527.986)">
            <path d="M1301.76,698.147L1242.57,690.502L1183.79,698.164L1243.81,705.893L1301.76,698.147Z" style="fill:none;stroke:white;stroke-width:4.25px;stroke-linecap:square;"/>
        </g>
        <g transform="matrix(0.966253,0,0,1.14279,27.9245,-448.392)">
            <path d="M1312.11,693.815L1247.08,683.988L1179.19,693.825L1244.5,703.978L1312.11,693.815Z" style="fill:none;stroke:white;stroke-width:4.25px;stroke-linecap:square;"/>
        </g>
        <g transform="matrix(0.966253,0,0,1.14279,121.517,-418.782)">
            <path d="M1320.54,697.204L1244.04,685.155L1170.37,697.736L1247.59,711.065L1320.54,697.204Z" style="fill:none;stroke:white;stroke-width:4.25px;stroke-linecap:square;"/>
        </g>
        <g transform="matrix(0.966253,0,0,1.14279,221.486,-258.891)">
            <path d="M1323.98,697.894L1243.43,680.752L1170.47,698.421L1253.64,716.322L1323.98,697.894Z" style="fill:none;stroke:white;stroke-width:4.25px;stroke-linecap:square;"/>
        </g>
        <g transform="matrix(0.966253,0,0,1.14279,287.351,-362.129)">
            <path d="M1318.02,694.477L1244.93,681.589L1182.55,694.517L1257.46,707.693L1318.02,694.477Z" style="fill:none;stroke:white;stroke-width:4.25px;stroke-linecap:square;"/>
        </g>
        <g transform="matrix(0.966253,0,0,1.14279,344.144,-478.002)">
            <path d="M1311.27,692.58L1243.34,683.847L1189.43,691.782L1258.22,701.589L1311.27,692.58Z" style="fill:none;stroke:white;stroke-width:4.25px;stroke-linecap:square;"/>
        </g>
        <g transform="matrix(0.966253,0,0,1.14279,432.826,-332.519)">
            <path d="M1307.64,692.122L1236.46,680.687L1184.67,692.468L1257.03,705.036L1307.64,692.122Z" style="fill:none;stroke:white;stroke-width:4.25px;stroke-linecap:square;"/>
        </g>
        <g transform="matrix(0.966253,0,0,1.14279,527.151,-302.909)">
            <path d="M1309.82,697.448L1234.23,684.7L1184.03,697.652L1261.82,711.834L1309.82,697.448Z" style="fill:none;stroke:white;stroke-width:4.25px;stroke-linecap:square;"/>
        </g>
        <g transform="matrix(0.966253,0,0,1.14279,234.252,-196.541)">
            <path d="M1310.77,643.335L1306.68,644.716L1240.41,661.763L1234.62,875.034L1301.98,850.076L1310.77,643.335Z" style="fill:none;stroke:white;stroke-width:4.25px;stroke-linecap:square;"/>
        </g>
        <path d="M1395.68,511.003L1407.66,507.362L1479,524.392L1463.27,529.218L1422.85,519.399L1395.64,526.769L1395.68,511.003Z" style="fill:none;stroke:white;stroke-width:4.5px;"/>
        <g transform="matrix(0.966253,0,0,0.746906,317.63,103.634)">
            <path d="M1306.65,645.604L1242.89,674.368L1236.33,887.561L1298.67,851.145L1306.65,645.604Z" style="fill:none;stroke:white;stroke-width:5.21px;stroke-linecap:square;"/>
        </g>
        <g transform="matrix(0.687718,0,0,0.80389,895.298,-27.0251)">
            <path d="M1305,649.453L1237.36,668.738L1217.07,866.334L1284.97,841.587L1305,649.453Z" style="fill:none;stroke:white;stroke-width:6.02px;stroke-linecap:square;"/>
        </g>
        <g transform="matrix(1,0,0,1,-0.768124,0.512083)">
            <path d="M1032.74,416.359L1038.94,530.519" style="fill:none;stroke:white;stroke-width:4.5px;stroke-linecap:square;"/>
        </g>
        <path d="M1038.32,507.848L1062.54,515.44" style="fill:none;stroke:white;stroke-width:4.5px;stroke-linecap:square;"/>
        <path d="M1038.32,491.434L1074.21,483.014L1094.53,488.652" style="fill:none;stroke:white;stroke-width:4.5px;"/>
        <path d="M981.38,403.656L998.713,400.068L1052.19,412.918L1054.94,487.224" style="fill:none;stroke:white;stroke-width:4.5px;stroke-linecap:square;"/>
        <path d="M1031.97,416.871L1050.43,413.701" style="fill:none;stroke:white;stroke-width:4.5px;stroke-linecap:square;"/>
        <g transform="matrix(1,0,0,1,-1.0949,-2.73726)">
            <path d="M976.825,707.61L995.625,702.142" style="fill:none;stroke:white;stroke-width:4.5px;"/>
        </g>
        <g transform="matrix(1,0,0,1.23148,78.1128,-135.64)">
            <path d="M976.159,707.231L996.425,702.25" style="fill:none;stroke:white;stroke-width:4.01px;"/>
        </g>
        <g transform="matrix(1.89737,0,0,1.89737,-715.914,-570.192)">
            <path d="M977.865,705.71L989.401,701.543" style="fill:none;stroke:white;stroke-width:2.37px;"/>
        </g>
        <g transform="matrix(1.89737,0,0,1.89737,-622.619,-533.276)">
            <path d="M977.005,705.593L989.502,700.828" style="fill:none;stroke:white;stroke-width:2.37px;"/>
        </g>
        <g transform="matrix(1.89737,0,0,1.89737,-432.31,-526.728)">
            <path d="M967.997,696.916L979.913,701.048" style="fill:none;stroke:white;stroke-width:2.37px;"/>
        </g>
        <g transform="matrix(3.35222,0,0,3.35222,-1780.25,-1584.93)">
            <path d="M976.432,699.453L982.099,701.444" style="fill:none;stroke:white;stroke-width:1.34px;"/>
        </g>
        <g transform="matrix(1.89737,0,0,-4.88929,-271.702,4197.82)">
            <path d="M972.315,710.148L982.167,708.997" style="fill:none;stroke:white;stroke-width:1.21px;"/>
        </g>
        <g transform="matrix(1.89737,0,0,1.89737,-200.546,-618.984)">
            <path d="M974.261,692.248L983.267,694.794" style="fill:none;stroke:white;stroke-width:2.37px;"/>
        </g>
        <g transform="matrix(1.89737,0,0,1.89737,-132.14,-646.686)">
            <path d="M974.614,691.825L982.596,693.665" style="fill:none;stroke:white;stroke-width:2.37px;"/>
        </g>
        <g transform="matrix(0.966253,0,0,0.746906,393.903,145.261)">
            <path d="M1244.39,675.339L1239.77,784.669L1296.85,752.641L1301.63,645.413" style="fill:none;stroke:white;stroke-width:5.21px;"/>
        </g>
        <g transform="matrix(1.89737,0,0,1.89737,-200.546,-618.984)">
            <path d="M936.969,665.819L947.009,668.76" style="fill:none;stroke:white;stroke-width:2.37px;"/>
        </g>
        <g transform="matrix(0.966253,0,0,0.746906,467.146,167.157)">
            <path d="M1241.25,673.705L1239.77,712.462L1292.06,682.813L1294.03,644.852" style="fill:none;stroke:white;stroke-width:5.21px;"/>
        </g>
        <g transform="matrix(1.89737,0,0,1.89737,-278.085,-661.053)">
            <path d="M936.969,665.819L947.047,668.644" style="fill:none;stroke:white;stroke-width:2.37px;"/>
        </g>
        <path d="M1145.19,307.689L1152.11,481.969" style="fill:none;stroke:white;stroke-width:4.5px;"/>
        <path d="M1087.59,298.057L1097.48,487.26" style="fill:none;stroke:white;stroke-width:4.5px;"/>
        <path d="M1167.49,346.177L1171.08,469.484" style="fill:none;stroke:white;stroke-width:4.5px;"/>
        <path d="M1230.42,356.108L1231.97,455.87" style="fill:none;stroke:white;stroke-width:4.5px;"/>
        <path d="M1252.38,378.578L1254.7,564.756" style="fill:none;stroke:white;stroke-width:4.5px;"/>
        <path d="M1205.21,495.713L1206.59,563.739" style="fill:none;stroke:white;stroke-width:4.5px;"/>
        <path d="M1229.99,489.503L1231.05,557.999" style="fill:none;stroke:white;stroke-width:4.5px;"/>
        <path d="M1326.88,394.042L1327.04,643.771" style="fill:none;stroke:white;stroke-width:4.5px;"/>
        <path d="M1352.46,539.93L1352.46,650.55" style="fill:none;stroke:white;stroke-width:4.5px;"/>
        <path d="M1302.04,578.023L1302.66,651.564" style="fill:none;stroke:white;stroke-width:4.5px;"/>
    </g>
    <g id="registers" transform="matrix(0.666302,0,0,0.666302,-471.044,-120.311)">
        <path d="M833.249,861.698L850.386,1028.38L936.288,1080.77L920.824,906.021" style="fill:none;stroke:white;stroke-width:4.5px;"/>
        <g transform="matrix(1,0,0,1,109.281,62.6646)">
            <path d="M830.67,853.699L844.852,1027.64L941.149,1086.27L929.596,904.321" style="fill:none;stroke:white;stroke-width:4.5px;"/>
        </g>
        <g transform="matrix(1,0,0,1,228.866,120.329)">
            <path d="M831.899,858.278L842.208,1041.33L950.712,1106.44L944.171,915.804" style="fill:none;stroke:white;stroke-width:4.5px;"/>
        </g>
        <g transform="matrix(1,0,0,1,369.022,194.932)">
            <path d="M835.799,852.683L840.513,1043.7L964.431,1118.49L964.734,918.988" style="fill:none;stroke:white;stroke-width:4.5px;"/>
        </g>
        <g transform="matrix(1,0,0,1,506.464,249.733)">
            <path d="M827.292,1063.69L943.669,985.87L949.644,794.305" style="fill:none;stroke:white;stroke-width:4.5px;"/>
        </g>
        <g transform="matrix(1,0,0,1,671.467,163.343)">
            <path d="M802.939,870.133L797.002,1060.22L898.561,993.098L909.345,809.924" style="fill:none;stroke:white;stroke-width:4.5px;"/>
        </g>
        <g transform="matrix(1,0,0,1,783.81,88.9266)">
            <path d="M816.504,872.363L805.685,1054.34L896.6,993.658L909.345,819.283" style="fill:none;stroke:white;stroke-width:4.5px;"/>
        </g>
        <path d="M1697.36,1071.48L1682.18,1065.58" style="fill:none;stroke:white;stroke-width:4.5px;"/>
        <g transform="matrix(1,0,0,1,896.154,13.222)">
            <path d="M815.278,885.158L801.204,1058.26L880.074,1005.42L897.315,838.585" style="fill:none;stroke:white;stroke-width:4.5px;"/>
        </g>
        <path d="M936.338,1080.75L952.376,1073.3" style="fill:none;stroke:white;stroke-width:4.5px;"/>
        <path d="M1050.48,1148.94L1069.68,1139.53" style="fill:none;stroke:white;stroke-width:4.5px;"/>
        <path d="M1179.58,1226.76L1208.5,1210.26" style="fill:none;stroke:white;stroke-width:4.5px;"/>
        <path d="M1451.15,1215.05L1468.09,1223.57" style="fill:none;stroke:white;stroke-width:4.5px;"/>
        <path d="M1571.29,1134.56L1589.39,1143.29" style="fill:none;stroke:white;stroke-width:4.5px;"/>
        <path d="M949.502,894.738L920.547,906.595L833.22,861.628L861.078,851.119" style="fill:none;stroke:white;stroke-width:4.5px;"/>
        <path d="M969.232,903.954L939.938,916.347L1039.2,966.455L1068.28,953.525" style="fill:none;stroke:white;stroke-width:4.5px;"/>
        <path d="M1202.47,1020.97L1173.12,1036.33L1060.77,978.553L1089.9,964.57" style="fill:none;stroke:white;stroke-width:4.5px;"/>
        <path d="M1429.73,1031.66L1456.11,1043.93L1333.92,1113.25L1204.93,1047.47L1229.89,1034.11" style="fill:none;stroke:white;stroke-width:4.5px;"/>
        <path d="M1448.71,1021.17L1474.42,1033.48L1580.81,972.927L1555.68,962.095" style="fill:none;stroke:white;stroke-width:4.5px;"/>
        <path d="M1574.82,950.883L1600.36,961.29L1693.16,908.017L1669.32,898.38" style="fill:none;stroke:white;stroke-width:4.5px;"/>
        <path d="M1687.06,889.29L1711.56,898.38L1793.47,851.647L1768.89,842.991" style="fill:none;stroke:white;stroke-width:4.5px;"/>
    </g>
    <g id="common" transform="matrix(0.666302,0,0,0.666302,-471.044,-120.311)">
        <path d="M831.876,809.062L833.848,835.343L1332.87,1085.16L1799.37,825.915L1801.88,799.548L1332.75,1052.16L831.876,809.062Z" style="fill:none;stroke:white;stroke-width:4.5px;"/>
        <path d="M827.28,765.359L829.234,791.956L1046.43,896.075L1045.7,866.056L827.28,765.359Z" style="fill:none;stroke:white;stroke-width:4.5px;"/>
        <path d="M1063.01,874.076L1064.21,904.516L1152.14,946.331L1151.14,914.967L1063.01,874.076Z" style="fill:none;stroke:white;stroke-width:4.5px;"/>
        <path d="M1173.07,925.07L1173.85,956.302L1332.82,1032.69L1803.69,782.826L1805.67,755.867L1332.93,998.422L1173.07,925.07Z" style="fill:none;stroke:white;stroke-width:4.5px;"/>
        <path d="M822.293,720.307L824.124,747.135L945.644,803.1L943.824,773.816L822.293,720.307Z" style="fill:none;stroke:white;stroke-width:4.5px;"/>
        <g transform="matrix(1,0,0,1,-0.00803591,-0.0141381)">
            <path d="M1045.59,866.169L1065.68,857.719" style="fill:none;stroke:white;stroke-width:4.5px;"/>
        </g>
        <g transform="matrix(1,0,0,1,-0.00803591,-0.0141381)">
            <path d="M847.596,758.106L827.293,765.366" style="fill:none;stroke:white;stroke-width:4.5px;"/>
        </g>
        <path d="M970.223,784.94L972.266,814.785L1332.79,978.312L1729.1,778.028L1730.86,750.373L1728.75,751.399L1332.8,943.959L970.223,784.94Z" style="fill:none;stroke:white;stroke-width:4.5px;"/>
        <path d="M1745.06,743.318L1810.92,711.483L1808.26,738.394L1743,771.824L1745.06,743.318Z" style="fill:none;stroke:white;stroke-width:4.5px;"/>
        <path d="M817.169,674.041L819.29,703.073L1332.77,922.252L1812.73,694.017L1815.41,665.741L1333.26,887.292L817.169,674.041Z" style="fill:none;stroke:white;stroke-width:4.5px;"/>
        <path d="M1333.02,887.197L1332.91,922.252" style="fill:none;stroke:white;stroke-width:4.5px;"/>
        <g transform="matrix(0.990436,0,0,0.990436,12.7482,9.35336)">
            <path d="M1332.94,943.626L1332.89,977.98" style="fill:none;stroke:white;stroke-width:4.55px;"/>
        </g>
        <path d="M1332.86,998.315L1332.81,1032.47" style="fill:none;stroke:white;stroke-width:4.5px;"/>
        <path d="M1332.81,1085.16L1332.79,1051.85" style="fill:none;stroke:white;stroke-width:4.5px;"/>
        <path d="M945.645,803.1L970.693,794.665" style="fill:none;stroke:white;stroke-width:4.5px;"/>
        <path d="M1729.78,768.577L1743,771.824" style="fill:none;stroke:white;stroke-width:4.5px;"/>
        <path d="M1046.43,896.075L1063.01,890.321" style="fill:none;stroke:white;stroke-width:4.5px;"/>
        <path d="M1152.14,946.331L1173.07,937.332" style="fill:none;stroke:white;stroke-width:4.5px;"/>
        <g transform="matrix(1,0,0,1,-0.0293765,0.0107219)">
            <path d="M831.939,808.945L850.312,802.09" style="fill:none;stroke:white;stroke-width:4.5px;"/>
        </g>
        <g transform="matrix(1,0,0,1,-0.0293765,0.0107219)">
            <path d="M1783.32,793.595L1801.93,799.548" style="fill:none;stroke:white;stroke-width:4.5px;"/>
        </g>
        <g transform="matrix(1,0,0,1,-0.187055,0.0478498)">
            <path d="M1172.18,905.523L1151.09,914.842" style="fill:none;stroke:white;stroke-width:4.5px;"/>
        </g>
        <g transform="matrix(1,0,0,1,-0.187055,0.0478498)">
            <path d="M1063.22,874.005L1083.98,865.4" style="fill:none;stroke:white;stroke-width:4.5px;"/>
        </g>
        <g transform="matrix(1,0,0,1,0.165501,0.341468)">
            <path d="M1193.73,915.129L1172.93,924.721" style="fill:none;stroke:white;stroke-width:4.5px;"/>
        </g>
        <g transform="matrix(1,0,0,1,0.165501,0.341468)">
            <path d="M1805.46,755.477L1786.62,749.481" style="fill:none;stroke:white;stroke-width:4.5px;"/>
        </g>
        <g transform="matrix(1,0,0,1,-0.00705345,0.0258068)">
            <path d="M1789.54,705.077L1810.95,711.431L1744.91,743.302L1723.82,736.284" style="fill:none;stroke:white;stroke-width:4.5px;"/>
        </g>
        <g transform="matrix(1,0,0,1,-0.094741,0.0852328)">
            <path d="M1710.89,742.37L1730.86,750.373L1332.91,943.87L970.288,784.898L992.141,776.926" style="fill:none;stroke:white;stroke-width:4.5px;"/>
        </g>
        <g transform="matrix(1,0,0,1,0.111362,-0.311706)">
            <path d="M965.931,765.986L943.556,774.022L822.18,720.574L843.555,713.777" style="fill:none;stroke:white;stroke-width:4.5px;"/>
        </g>
        <g transform="matrix(1,0,0,1,0.0812134,0.0343619)">
            <path d="M1769.53,653.658L1815.33,665.715L1333.1,887.212L817.169,674.083L817.169,673.97L864.086,660.508" style="fill:none;stroke:white;stroke-width:4.5px;"/>
        </g>
    </g>
</svg>
